<svg xmlns="http://www.w3.org/2000/svg" xmlns:xlink="http://www.w3.org/1999/xlink" width="500" zoomAndPan="magnify" viewBox="0 0 375 374.999991" height="500" preserveAspectRatio="xMidYMid meet" version="1.0"><defs><clipPath id="724bbc0bc3"><path d="M 1.363281 0 L 373.363281 0 L 373.363281 375 L 1.363281 375 Z M 1.363281 0 " clip-rule="nonzero"/></clipPath></defs><g clip-path="url(#724bbc0bc3)"><path fill="#439a97" d="M 149.34375 171.828125 C 149.34375 177.039062 148.378906 182.324219 146.519531 187.613281 C 144.65625 192.898438 142.203125 198.109375 139.300781 203.246094 C 136.398438 208.382812 133.199219 213.296875 129.628906 218.0625 C 126.132812 222.828125 122.636719 227.222656 119.289062 231.167969 L 111.179688 237.421875 L 111.179688 238.164062 L 122.1875 236.007812 L 151.652344 236.007812 L 151.652344 252.90625 L 87.148438 252.90625 L 87.148438 242.632812 C 89.601562 240.101562 92.355469 237.125 95.40625 233.699219 C 98.457031 230.273438 101.582031 226.625 104.707031 222.828125 C 107.828125 219.03125 110.878906 215.011719 113.855469 210.914062 C 116.832031 206.820312 119.4375 202.726562 121.816406 198.554688 C 124.199219 194.386719 126.058594 190.441406 127.398438 186.496094 C 128.8125 182.625 129.480469 178.902344 129.480469 175.476562 C 129.480469 171.304688 128.289062 167.808594 125.910156 165.125 C 123.527344 162.445312 119.734375 161.03125 114.527344 161.03125 C 111.253906 161.03125 107.90625 161.703125 104.480469 163.117188 C 101.058594 164.53125 98.15625 166.242188 95.851562 168.402344 L 87.816406 154.332031 C 91.835938 151.054688 96.296875 148.449219 101.355469 146.4375 C 106.417969 144.429688 112.367188 143.460938 119.214844 143.460938 C 123.601562 143.460938 127.621094 144.054688 131.339844 145.320312 C 134.984375 146.511719 138.183594 148.375 140.863281 150.683594 C 143.542969 153.066406 145.625 155.96875 147.113281 159.46875 C 148.601562 163.042969 149.34375 167.136719 149.34375 171.828125 Z M 238.328125 223.050781 L 221.4375 223.050781 L 221.4375 252.980469 L 202.914062 252.980469 L 202.914062 223.050781 L 156.488281 223.050781 L 156.488281 211.734375 L 205.070312 144.875 L 221.4375 144.875 L 221.4375 207.117188 L 238.328125 207.117188 Z M 202.914062 183.664062 L 204.328125 170.785156 L 203.730469 170.785156 L 198.523438 181.804688 L 182.601562 202.503906 L 174.9375 208.308594 L 184.757812 207.117188 L 202.988281 207.117188 L 202.988281 183.664062 Z M 275.972656 201.90625 L 275.972656 176.519531 C 275.972656 172.871094 275.453125 170.265625 274.484375 168.625 C 273.445312 166.988281 271.660156 166.242188 268.980469 166.242188 C 267.046875 166.242188 265.1875 166.914062 263.550781 168.253906 C 261.914062 169.59375 260.796875 171.304688 260.277344 173.390625 L 260.277344 201.90625 L 248.667969 201.90625 L 248.667969 139.367188 L 260.277344 139.367188 L 260.277344 162.222656 L 260.648438 162.222656 C 262.0625 160.285156 263.847656 158.796875 265.929688 157.679688 C 268.011719 156.5625 270.691406 155.96875 273.890625 155.96875 C 276.121094 155.96875 278.132812 156.265625 279.84375 156.863281 C 281.554688 157.457031 283.042969 158.425781 284.15625 159.839844 C 285.347656 161.179688 286.167969 163.042969 286.761719 165.425781 C 287.355469 167.808594 287.582031 170.710938 287.582031 174.136719 L 287.582031 201.90625 Z M 343.605469 188.652344 C 343.605469 274.871094 273.519531 345.007812 187.363281 345.007812 C 101.207031 345.007812 31.125 274.871094 31.125 188.652344 C 31.125 129.539062 63.488281 76.898438 114.898438 50.09375 L 107.90625 71.316406 L 187.363281 17.410156 L 92.949219 0.210938 L 110.136719 19.347656 C 79.78125 33.195312 53.816406 54.785156 34.621094 82.410156 C 12.894531 113.679688 1.363281 150.460938 1.363281 188.652344 C 1.363281 291.324219 84.765625 374.789062 187.363281 374.789062 C 289.960938 374.789062 373.363281 291.324219 373.363281 188.652344 Z M 187.363281 32.300781 C 190.339844 32.300781 193.390625 32.375 196.441406 32.523438 L 198.152344 2.816406 C 194.582031 2.59375 190.933594 2.519531 187.363281 2.519531 Z M 247.328125 44.289062 C 252.6875 46.523438 257.96875 49.054688 263.027344 51.882812 L 277.460938 25.824219 C 271.4375 22.472656 265.113281 19.421875 258.714844 16.738281 Z M 295.09375 36.917969 L 277.835938 61.1875 C 282.59375 64.539062 287.132812 68.261719 291.523438 72.132812 L 311.386719 49.945312 C 306.179688 45.332031 300.75 40.9375 295.09375 36.917969 Z M 213.777344 34.535156 C 219.503906 35.503906 225.234375 36.84375 230.8125 38.40625 L 239.144531 9.890625 C 232.523438 7.953125 225.679688 6.390625 218.835938 5.273438 Z M 350.152344 98.492188 L 324.109375 112.933594 C 326.9375 117.996094 329.46875 123.285156 331.699219 128.644531 L 359.152344 117.179688 C 356.476562 110.851562 353.5 104.519531 350.152344 98.492188 Z M 366.074219 136.910156 L 337.503906 145.171875 C 339.140625 150.757812 340.40625 156.488281 341.371094 162.222656 L 370.683594 157.234375 C 369.570312 150.382812 368.007812 143.535156 366.074219 136.910156 Z M 326.046875 64.6875 L 303.875 84.566406 C 307.742188 88.886719 311.386719 93.5 314.8125 98.265625 L 339.066406 80.992188 C 335.046875 75.261719 330.65625 69.824219 326.046875 64.6875 Z M 373.066406 177.933594 L 343.378906 179.644531 C 343.527344 182.699219 343.605469 185.75 343.605469 188.726562 L 373.363281 188.726562 C 373.363281 185.15625 373.289062 181.507812 373.066406 177.933594 Z M 373.066406 177.933594 " fill-opacity="1" fill-rule="nonzero"/></g></svg>