<svg xmlns="http://www.w3.org/2000/svg" xmlns:xlink="http://www.w3.org/1999/xlink" width="500" zoomAndPan="magnify" viewBox="0 0 375 374.999991" height="500" preserveAspectRatio="xMidYMid meet" version="1.0"><defs><clipPath id="2bbaf9bef4"><path d="M 34.6875 42.191406 L 339.9375 42.191406 L 339.9375 332.441406 L 34.6875 332.441406 Z M 34.6875 42.191406 " clip-rule="nonzero"/></clipPath></defs><g clip-path="url(#2bbaf9bef4)"><path fill="#439a97" d="M 187.3125 42.191406 L 226.617188 130.554688 C 228.128906 133.945312 230.507812 136.882812 233.511719 139.066406 C 236.515625 141.25 240.042969 142.601562 243.738281 142.988281 L 339.925781 153.0625 L 268.03125 217.746094 C 265.269531 220.234375 263.210938 223.398438 262.0625 226.933594 C 260.914062 230.464844 260.71875 234.238281 261.492188 237.871094 L 281.632812 332.460938 L 197.894531 284.074219 C 194.675781 282.214844 191.027344 281.238281 187.3125 281.238281 C 183.597656 281.238281 179.949219 282.214844 176.734375 284.074219 L 92.992188 332.460938 L 113.136719 237.871094 C 113.910156 234.238281 113.714844 230.464844 112.566406 226.933594 C 111.417969 223.398438 109.359375 220.234375 106.597656 217.746094 L 34.699219 153.0625 L 130.890625 142.988281 C 134.585938 142.601562 138.113281 141.25 141.117188 139.066406 C 144.121094 136.882812 146.5 133.945312 148.007812 130.554688 Z M 187.3125 42.191406 " fill-opacity="1" fill-rule="evenodd"/></g></svg>